{
  "accessors": [
    {
      "bufferView": 2,
      "componentType": 5126,
      "count": 65532,
      "max": [
        184.43490600585938,
        152.67300415039062,
        170.26060485839844
      ],
      "min": [
        -137.92861938476562,
        -181.07492065429688,
        -2.6435010433197021
      ],
      "type": "VEC3"
    },
    {
      "bufferView": 2,
      "byteOffset": 786384,
      "componentType": 5126,
      "count": 65532,
      "max": [
        0.99999922513961792,
        1,
        1
      ],
      "min": [
        -0.99999988079071045,
        -1,
        -1
      ],
      "type": "VEC3"
    },
    {
      "bufferView": 1,
      "componentType": 5126,
      "count": 65532,
      "max": [
        0.9976000189781189,
        0.9976000189781189
      ],
      "min": [
        0.0010000000474974513,
        0.0024999999441206455
      ],
      "type": "VEC2"
    },
    {
      "bufferView": 0,
      "componentType": 5125,
      "count": 321618,
      "max": [
        65531
      ],
      "min": [
        0
      ],
      "type": "SCALAR"
    },
    {
      "bufferView": 2,
      "byteOffset": 1572768,
      "componentType": 5126,
      "count": 48025,
      "max": [
        183.37860107421875,
        65.357902526855469,
        213.33250427246094
      ],
      "min": [
        -93.976997375488281,
        -149.63272094726562,
        6.919701099395752
      ],
      "type": "VEC3"
    },
    {
      "bufferView": 2,
      "byteOffset": 2149068,
      "componentType": 5126,
      "count": 48025,
      "max": [
        1,
        1,
        1
      ],
      "min": [
        -1,
        -1,
        -1
      ],
      "type": "VEC3"
    },
    {
      "bufferView": 1,
      "byteOffset": 524256,
      "componentType": 5126,
      "count": 48025,
      "max": [
        0.99620002508163452,
        0.99620002508163452
      ],
      "min": [
        0.0010000000474974513,
        0.0024999999441206455
      ],
      "type": "VEC2"
    },
    {
      "bufferView": 0,
      "byteOffset": 1286472,
      "componentType": 5125,
      "count": 239967,
      "max": [
        48024
      ],
      "min": [
        0
      ],
      "type": "SCALAR"
    },
    {
      "bufferView": 2,
      "byteOffset": 2725368,
      "componentType": 5126,
      "count": 65532,
      "max": [
        188.49600219726562,
        150.83688354492188,
        180.88420104980469
      ],
      "min": [
        -142.49081420898438,
        -173.11581420898438,
        -1.2548979520797729
      ],
      "type": "VEC3"
    },
    {
      "bufferView": 2,
      "byteOffset": 3511752,
      "componentType": 5126,
      "count": 65532,
      "max": [
        1,
        1,
        1
      ],
      "min": [
        -1,
        -1,
        -1
      ],
      "type": "VEC3"
    },
    {
      "bufferView": 1,
      "byteOffset": 908456,
      "componentType": 5126,
      "count": 65532,
      "max": [
        0.98940002918243408,
        0.98659998178482056
      ],
      "min": [
        0.0017999999690800905,
        0.0017999999690800905
      ],
      "type": "VEC2"
    },
    {
      "bufferView": 0,
      "byteOffset": 2246340,
      "componentType": 5125,
      "count": 322656,
      "max": [
        65531
      ],
      "min": [
        0
      ],
      "type": "SCALAR"
    },
    {
      "bufferView": 2,
      "byteOffset": 4298136,
      "componentType": 5126,
      "count": 13656,
      "max": [
        154.1864013671875,
        59.273101806640625,
        195.49299621582031
      ],
      "min": [
        -94.488296508789062,
        -123.00119781494141,
        2.0374979972839355
      ],
      "type": "VEC3"
    },
    {
      "bufferView": 2,
      "byteOffset": 4462008,
      "componentType": 5126,
      "count": 13656,
      "max": [
        1,
        1,
        1
      ],
      "min": [
        -1,
        -1,
        -1
      ],
      "type": "VEC3"
    },
    {
      "bufferView": 1,
      "byteOffset": 1432712,
      "componentType": 5126,
      "count": 13656,
      "max": [
        0.97820001840591431,
        0.98750001192092896
      ],
      "min": [
        0.0017999999690800905,
        0.0017999999690800905
      ],
      "type": "VEC2"
    },
    {
      "bufferView": 0,
      "byteOffset": 3536964,
      "componentType": 5125,
      "count": 65136,
      "max": [
        13655
      ],
      "min": [
        0
      ],
      "type": "SCALAR"
    },
    {
      "bufferView": 2,
      "byteOffset": 4625880,
      "componentType": 5126,
      "count": 1565,
      "max": [
        310.59274291992188,
        313.84429931640625,
        323.46469116210938
      ],
      "min": [
        -315.72314453125,
        -307.60162353515625,
        -4.9881291389465332
      ],
      "type": "VEC3"
    },
    {
      "bufferView": 2,
      "byteOffset": 4644660,
      "componentType": 5126,
      "count": 1565,
      "max": [
        0.99902397394180298,
        0.99663376808166504,
        0.99993300437927246
      ],
      "min": [
        -0.9966614842414856,
        -0.99881637096405029,
        -1
      ],
      "type": "VEC3"
    },
    {
      "bufferView": 1,
      "byteOffset": 1541960,
      "componentType": 5126,
      "count": 1565,
      "max": [
        0.99970000982284546,
        0.95149999856948853
      ],
      "min": [
        0.0019000000320374966,
        0.0019000000320374966
      ],
      "type": "VEC2"
    },
    {
      "bufferView": 0,
      "byteOffset": 3797508,
      "componentType": 5125,
      "count": 8232,
      "max": [
        1564
      ],
      "min": [
        0
      ],
      "type": "SCALAR"
    }
  ],
  "asset": {
    "extras": {
      "author": "AlenaShek (https://sketchfab.com/ShekAlena)",
      "license": "CC-BY-4.0 (http://creativecommons.org/licenses/by/4.0/)",
      "source": "https://sketchfab.com/3d-models/sea-house-bc4782005e9646fb9e6e18df61bfd28d",
      "title": "Sea House"
    },
    "generator": "Sketchfab-8.33.0",
    "version": "2.0"
  },
  "bufferViews": [
    {
      "buffer": 0,
      "byteLength": 3830436,
      "byteOffset": 0,
      "name": "floatBufferViews",
      "target": 34963
    },
    {
      "buffer": 0,
      "byteLength": 1554480,
      "byteOffset": 3830436,
      "byteStride": 8,
      "name": "floatBufferViews",
      "target": 34962
    },
    {
      "buffer": 0,
      "byteLength": 4663440,
      "byteOffset": 5384916,
      "byteStride": 12,
      "name": "floatBufferViews",
      "target": 34962
    }
  ],
  "buffers": [
    {
      "byteLength": 10048356,
      "uri": "scene.bin"
    }
  ],
  "extensionsUsed": [
    "KHR_materials_unlit"
  ],
  "images": [
    {
      "uri": "textures/11112_sheet_Material__25_baseColor.png"
    },
    {
      "uri": "textures/11112_sheet_Material__37_baseColor.png"
    },
    {
      "uri": "textures/default_baseColor.png"
    }
  ],
  "materials": [
    {
      "alphaMode": "BLEND",
      "doubleSided": true,
      "extensions": {
        "KHR_materials_unlit": {}
      },
      "name": "11112_sheet_Material__25",
      "pbrMetallicRoughness": {
        "baseColorFactor": [
          1,
          1,
          1,
          1
        ],
        "baseColorTexture": {
          "index": 0,
          "texCoord": 0
        },
        "metallicFactor": 0,
        "roughnessFactor": 1
      }
    },
    {
      "alphaMode": "BLEND",
      "doubleSided": true,
      "extensions": {
        "KHR_materials_unlit": {}
      },
      "name": "11112_sheet_Material__37",
      "pbrMetallicRoughness": {
        "baseColorFactor": [
          1,
          1,
          1,
          1
        ],
        "baseColorTexture": {
          "index": 1,
          "texCoord": 0
        },
        "metallicFactor": 0,
        "roughnessFactor": 1
      }
    },
    {
      "alphaMode": "BLEND",
      "doubleSided": false,
      "extensions": {
        "KHR_materials_unlit": {}
      },
      "name": "default",
      "pbrMetallicRoughness": {
        "baseColorFactor": [
          1,
          1,
          1,
          1
        ],
        "baseColorTexture": {
          "index": 2,
          "texCoord": 0
        },
        "metallicFactor": 0,
        "roughnessFactor": 1
      }
    }
  ],
  "meshes": [
    {
      "primitives": [
        {
          "attributes": {
            "NORMAL": 1,
            "POSITION": 0,
            "TEXCOORD_0": 2
          },
          "indices": 3,
          "material": 0,
          "mode": 4
        }
      ]
    },
    {
      "primitives": [
        {
          "attributes": {
            "NORMAL": 5,
            "POSITION": 4,
            "TEXCOORD_0": 6
          },
          "indices": 7,
          "material": 0,
          "mode": 4
        }
      ]
    },
    {
      "primitives": [
        {
          "attributes": {
            "NORMAL": 9,
            "POSITION": 8,
            "TEXCOORD_0": 10
          },
          "indices": 11,
          "material": 1,
          "mode": 4
        }
      ]
    },
    {
      "primitives": [
        {
          "attributes": {
            "NORMAL": 13,
            "POSITION": 12,
            "TEXCOORD_0": 14
          },
          "indices": 15,
          "material": 1,
          "mode": 4
        }
      ]
    },
    {
      "primitives": [
        {
          "attributes": {
            "NORMAL": 17,
            "POSITION": 16,
            "TEXCOORD_0": 18
          },
          "indices": 19,
          "material": 2,
          "mode": 4
        }
      ]
    }
  ],
  "nodes": [
    {
      "children": [
        1
      ],
      "name": "RootNode (gltf orientation matrix)",
      "rotation": [
        -0.70710678118654746,
        -0,
        -0,
        0.70710678118654757
      ]
    },
    {
      "children": [
        2
      ],
      "name": "RootNode (model correction matrix)"
    },
    {
      "children": [
        3,
        4,
        5,
        6,
        7
      ],
      "name": "sea.obj.cleaner.materialmerger.gles"
    },
    {
      "mesh": 0,
      "name": ""
    },
    {
      "mesh": 1,
      "name": ""
    },
    {
      "mesh": 2,
      "name": ""
    },
    {
      "mesh": 3,
      "name": ""
    },
    {
      "mesh": 4,
      "name": ""
    }
  ],
  "samplers": [
    {
      "magFilter": 9729,
      "minFilter": 9987,
      "wrapS": 10497,
      "wrapT": 10497
    }
  ],
  "scene": 0,
  "scenes": [
    {
      "name": "OSG_Scene",
      "nodes": [
        0
      ]
    }
  ],
  "textures": [
    {
      "sampler": 0,
      "source": 0
    },
    {
      "sampler": 0,
      "source": 1
    },
    {
      "sampler": 0,
      "source": 2
    }
  ]
}

